<svg width="75" height="72" viewBox="0 0 75 72" fill="none" xmlns="http://www.w3.org/2000/svg">
<path d="M3.75 2.5H71.25C71.9295 2.5 72.5 3.05674 72.5 3.76697V32.0192V60.2715C72.5 60.9817 71.9295 61.5385 71.25 61.5385H18.75H3.75C3.07029 61.5385 2.5 60.9819 2.5 60.2715V3.76697C2.5 3.05661 3.07029 2.5 3.75 2.5Z" stroke="#004059" stroke-width="5"/>
<path d="M3.75 2.5H71.25C71.6944 2.5 72.0411 2.65847 72.2513 2.84318C72.4567 3.02363 72.5 3.18895 72.5 3.29543V14.2308H2.5V3.29543C2.5 3.1888 2.54339 3.0235 2.74863 2.84313C2.95873 2.65851 3.30534 2.5 3.75 2.5Z" stroke="#004059" stroke-width="5"/>
<path d="M53.3286 11.2666C54.9879 11.2666 56.333 9.92146 56.333 8.26221C56.333 6.60296 54.9879 5.25781 53.3286 5.25781C51.6694 5.25781 50.3242 6.60296 50.3242 8.26221C50.3242 9.92146 51.6694 11.2666 53.3286 11.2666Z" fill="#004059"/>
<path d="M63.0928 8.26221C63.0928 9.92146 61.7476 11.2666 60.0884 11.2666C58.4291 11.2666 57.084 9.92146 57.084 8.26221C57.084 6.60296 58.4291 5.25781 60.0884 5.25781C61.7476 5.25781 63.0928 6.60296 63.0928 8.26221Z" fill="#004059"/>
<path d="M69.8525 8.26221C69.8525 9.92146 68.5073 11.2666 66.8481 11.2666C65.1889 11.2666 63.8438 9.92146 63.8438 8.26221C63.8438 6.60296 65.1889 5.25781 66.8481 5.25781C68.5073 5.25781 69.8525 6.60296 69.8525 8.26221Z" fill="#004059"/>
<path d="M26.5383 24.971C26.5383 24.2427 25.9513 23.6523 25.2271 23.6523H13.4264C12.7023 23.6523 12.1152 24.2427 12.1152 24.971V36.1798C12.1152 36.9081 12.7023 37.4985 13.4264 37.4985H25.2271C25.9513 37.4985 26.5383 36.9081 26.5383 36.1798V24.971Z" fill="#004059"/>
<path d="M43.6881 23.6523C44.4122 23.6523 44.9992 24.2427 44.9992 24.971V36.1798C44.9992 36.9081 44.4122 37.4985 43.6881 37.4985H31.8874C31.1632 37.4985 30.5762 36.9081 30.5762 36.1798V24.971C30.5762 24.2427 31.1632 23.6523 31.8874 23.6523H43.6881Z" fill="#004059"/>
<path d="M61.5728 23.6523C62.297 23.6523 62.884 24.2427 62.884 24.971V36.1798C62.884 36.9081 62.297 37.4985 61.5728 37.4985H49.7721C49.048 37.4985 48.4609 36.9081 48.4609 36.1798V24.971C48.4609 24.2427 49.048 23.6523 49.7721 23.6523H61.5728Z" fill="#004059"/>
<path d="M50.1262 66.1227L50.1262 66.1227L41.1936 42.1841L65.2867 51.0752C65.2867 51.0752 65.2867 51.0752 65.2867 51.0752C65.6594 51.2128 65.7439 51.6656 65.4813 51.9267L65.481 51.927L59.9505 57.4271L58.152 59.2156L59.9664 60.9881L67.6508 68.4944C67.8577 68.6967 67.8595 69.0191 67.6589 69.2228C67.4482 69.4361 67.0996 69.4384 66.8866 69.2304C66.8866 69.2304 66.8866 69.2304 66.8865 69.2303L59.163 61.6851L57.4004 59.9632L55.6532 61.7007L51.0186 66.3095C51.0186 66.3095 51.0185 66.3096 51.0185 66.3096C50.7337 66.5926 50.2578 66.4754 50.1262 66.1227Z" fill="#EFF7F9" stroke="#004059" stroke-width="5"/>
<path d="M10 50.1932C10 50.1229 10.0257 50.0413 10.1114 49.9593C10.199 49.8754 10.3357 49.8086 10.5128 49.8086H31.6026C31.7797 49.8086 31.9164 49.8754 32.004 49.9593C32.0897 50.0413 32.1154 50.1229 32.1154 50.1932C32.1154 50.2635 32.0897 50.3451 32.004 50.4272C31.9164 50.511 31.7797 50.5778 31.6026 50.5778H10.5128C10.3357 50.5778 10.199 50.511 10.1114 50.4272C10.0257 50.3451 10 50.2635 10 50.1932Z" fill="white" stroke="#004059" stroke-width="5"/>
</svg>
