<svg width="77" height="72" viewBox="0 0 77 72" fill="none" xmlns="http://www.w3.org/2000/svg">
<path d="M71.5 61.25V35.75C71.5 35.0207 71.2103 34.3212 70.6945 33.8055C70.1788 33.2897 69.4793 33 68.75 33H66V35.75C66 37.938 65.1308 40.0365 63.5836 41.5836C62.0365 43.1308 59.938 44 57.75 44H16.5V63.25C16.5 63.9793 16.7897 64.6788 17.3055 65.1945C17.8212 65.7103 18.5207 66 19.25 66H68.75C69.4793 66 70.1788 65.7103 70.6945 65.1945C71.2103 64.6788 71.5 63.9793 71.5 63.25V60.5C71.5 59.7707 71.7897 59.0712 72.3055 58.5555C72.8212 58.0397 73.5207 57.75 74.25 57.75C74.9793 57.75 75.6788 58.0397 76.1945 58.5555C76.7103 59.0712 77 59.7707 77 60.5V63.25C77 65.438 76.1308 67.5365 74.5836 69.0836C73.0365 70.6308 70.938 71.5 68.75 71.5H19.25C17.062 71.5 14.9635 70.6308 13.4164 69.0836C11.8692 67.5365 11 65.438 11 63.25V44H8.25C6.06196 44 3.96354 43.1308 2.41637 41.5836C0.869194 40.0365 0 37.938 0 35.75V11C0 10.2707 0.289731 9.57118 0.805456 9.05546C1.32118 8.53973 2.02065 8.25 2.75 8.25C3.47935 8.25 4.17882 8.53973 4.69454 9.05546C5.21027 9.57118 5.5 10.2707 5.5 11V35.75C5.5 36.4793 5.78973 37.1788 6.30546 37.6945C6.82118 38.2103 7.52065 38.5 8.25 38.5H44V33C44 32.2707 44.2897 31.5712 44.8055 31.0555C45.3212 30.5397 46.0207 30.25 46.75 30.25C47.4793 30.25 48.1788 30.5397 48.6945 31.0555C49.2103 31.5712 49.5 32.2707 49.5 33V38.5H52.25V33C52.25 32.2707 52.5397 31.5712 53.0555 31.0555C53.5712 30.5397 54.2707 30.25 55 30.25C55.7293 30.25 56.4288 30.5397 56.9445 31.0555C57.4603 31.5712 57.75 32.2707 57.75 33V38.5C58.4793 38.5 59.1788 38.2103 59.6945 37.6945C60.2103 37.1788 60.5 36.4793 60.5 35.75V8.25C60.5 7.52065 60.2103 6.82118 59.6945 6.30546C59.1788 5.78973 58.4793 5.5 57.75 5.5V24.75C57.75 25.4793 57.4603 26.1788 56.9445 26.6945C56.4288 27.2103 55.7293 27.5 55 27.5C54.2707 27.5 53.5712 27.2103 53.0555 26.6945C52.5397 26.1788 52.25 25.4793 52.25 24.75V5.5H49.5V24.75C49.5 25.4793 49.2103 26.1788 48.6945 26.6945C48.1788 27.2103 47.4793 27.5 46.75 27.5C46.0207 27.5 45.3212 27.2103 44.8055 26.6945C44.2897 26.1788 44 25.4793 44 24.75V5.5H8.25C7.52065 5.5 6.82118 5.78973 6.30546 6.30546C5.78973 6.82118 5.5 7.52065 5.5 8.25V11C5.5 11.7293 5.21027 12.4288 4.69454 12.9445C4.17882 13.4603 3.47935 13.75 2.75 13.75C2.02065 13.75 1.32118 13.4603 0.805456 12.9445C0.289731 12.4288 0 11.7293 0 11V8.25C0 6.06196 0.869194 3.96354 2.41637 2.41637C3.96354 0.869194 6.06196 0 8.25 0H57.75C59.938 0 62.0365 0.869194 63.5836 2.41637C65.1308 3.96354 66 6.06196 66 8.25V27.5H68.75C70.938 27.5 73.0365 28.3692 74.5836 29.9164C76.1308 31.4635 77 33.562 77 35.75V61.25C77 61.9793 76.7103 62.6788 76.1945 63.1945C75.6788 63.7103 74.9793 64 74.25 64C73.5207 64 72.8212 63.7103 72.3055 63.1945C71.7897 62.6788 71.5 61.9793 71.5 61.25ZM19.25 19.25C20.3378 19.25 21.4012 18.9274 22.3056 18.3231C23.2101 17.7187 23.9151 16.8598 24.3313 15.8548C24.7476 14.8498 24.8565 13.7439 24.6443 12.677C24.4321 11.6101 23.9083 10.6301 23.1391 9.86091C22.3699 9.09172 21.3899 8.5679 20.323 8.35568C19.2561 8.14346 18.1502 8.25238 17.1452 8.66866C16.1402 9.08494 15.2813 9.78989 14.6769 10.6944C14.0726 11.5988 13.75 12.6622 13.75 13.75C13.75 15.2087 14.3295 16.6076 15.3609 17.6391C16.3924 18.6705 17.7913 19.25 19.25 19.25ZM30.25 24.75C29.1622 24.75 28.0988 25.0726 27.1944 25.6769C26.2899 26.2813 25.5849 27.1402 25.1687 28.1452C24.7524 29.1502 24.6435 30.2561 24.8557 31.323C25.0679 32.3899 25.5917 33.3699 26.3609 34.1391C27.1301 34.9083 28.1101 35.4321 29.177 35.6443C30.2439 35.8565 31.3498 35.7476 32.3548 35.3313C33.3598 34.9151 34.2187 34.2101 34.8231 33.3056C35.4274 32.4012 35.75 31.3378 35.75 30.25C35.75 28.7913 35.1705 27.3924 34.1391 26.3609C33.1076 25.3295 31.7087 24.75 30.25 24.75ZM14.5475 32.2025C14.8031 32.4603 15.1073 32.6648 15.4424 32.8045C15.7775 32.9441 16.137 33.0159 16.5 33.0159C16.863 33.0159 17.2225 32.9441 17.5576 32.8045C17.8927 32.6648 18.1969 32.4603 18.4525 32.2025L34.9525 15.7025C35.2089 15.4461 35.4123 15.1417 35.5511 14.8067C35.6898 14.4717 35.7612 14.1126 35.7612 13.75C35.7612 13.3874 35.6898 13.0283 35.5511 12.6933C35.4123 12.3583 35.2089 12.0539 34.9525 11.7975C34.6961 11.5411 34.3917 11.3377 34.0567 11.1989C33.7217 11.0602 33.3626 10.9887 33 10.9887C32.6374 10.9887 32.2783 11.0602 31.9433 11.1989C31.6083 11.3377 31.3039 11.5411 31.0475 11.7975L14.5475 28.2975C14.2897 28.5531 14.0852 28.8573 13.9455 29.1924C13.8059 29.5275 13.7341 29.887 13.7341 30.25C13.7341 30.613 13.8059 30.9725 13.9455 31.3076C14.0852 31.6427 14.2897 31.9469 14.5475 32.2025ZM49.5 57.75H24.75C24.0207 57.75 23.3212 58.0397 22.8055 58.5555C22.2897 59.0712 22 59.7707 22 60.5C22 61.2293 22.2897 61.9288 22.8055 62.4445C23.3212 62.9603 24.0207 63.25 24.75 63.25H49.5C50.2293 63.25 50.9288 62.9603 51.4445 62.4445C51.9603 61.9288 52.25 61.2293 52.25 60.5C52.25 59.7707 51.9603 59.0712 51.4445 58.5555C50.9288 58.0397 50.2293 57.75 49.5 57.75ZM49.5 49.5H24.75C24.0207 49.5 23.3212 49.7897 22.8055 50.3055C22.2897 50.8212 22 51.5207 22 52.25C22 52.9793 22.2897 53.6788 22.8055 54.1945C23.3212 54.7103 24.0207 55 24.75 55H49.5C50.2293 55 50.9288 54.7103 51.4445 54.1945C51.9603 53.6788 52.25 52.9793 52.25 52.25C52.25 51.5207 51.9603 50.8212 51.4445 50.3055C50.9288 49.7897 50.2293 49.5 49.5 49.5ZM63.25 49.5H57.75C57.0207 49.5 56.3212 49.7897 55.8055 50.3055C55.2897 50.8212 55 51.5207 55 52.25C55 52.9793 55.2897 53.6788 55.8055 54.1945C56.3212 54.7103 57.0207 55 57.75 55H63.25C63.9793 55 64.6788 54.7103 65.1945 54.1945C65.7103 53.6788 66 52.9793 66 52.25C66 51.5207 65.7103 50.8212 65.1945 50.3055C64.6788 49.7897 63.9793 49.5 63.25 49.5ZM63.25 57.75H57.75C57.0207 57.75 56.3212 58.0397 55.8055 58.5555C55.2897 59.0712 55 59.7707 55 60.5C55 61.2293 55.2897 61.9288 55.8055 62.4445C56.3212 62.9603 57.0207 63.25 57.75 63.25H63.25C63.9793 63.25 64.6788 62.9603 65.1945 62.4445C65.7103 61.9288 66 61.2293 66 60.5C66 59.7707 65.7103 59.0712 65.1945 58.5555C64.6788 58.0397 63.9793 57.75 63.25 57.75Z" fill="#004059"/>
</svg>
