<svg width="63" height="73" viewBox="0 0 63 73" fill="none" xmlns="http://www.w3.org/2000/svg">
<path d="M45.1632 36.5C40.5051 36.5 36.0377 38.4228 32.7439 41.8453C29.4501 45.2679 27.5996 49.9098 27.5996 54.75C27.6009 55.993 27.7185 57.2329 27.9509 58.4522C28.1199 59.2593 28.3463 60.0523 28.6283 60.8247C29.7006 63.9812 31.5878 66.7704 34.0833 68.8873C36.5789 71.0042 39.5866 72.3671 42.7776 72.827C45.9686 73.2868 49.2198 72.8259 52.1755 71.4946C55.1313 70.1633 57.6778 68.013 59.5363 65.2788C61.3949 62.5447 62.494 59.3321 62.7133 55.9924C62.9326 52.6528 62.2637 49.3148 60.7798 46.3437C59.2959 43.3725 57.0542 40.8827 54.2999 39.1465C51.5455 37.4104 48.3847 36.4948 45.1632 36.5ZM45.1632 67.7857C42.5582 67.7839 40.0184 66.9395 37.8962 65.3698C35.774 63.8 34.1748 61.5828 33.3203 59.0257C33.1329 58.481 32.982 57.9235 32.8687 57.3572C32.6914 56.5006 32.6073 55.6261 32.6178 54.75C32.6178 52.1718 33.3536 49.6515 34.7321 47.5078C36.1106 45.3641 38.0699 43.6932 40.3623 42.7066C42.6547 41.7199 45.1771 41.4618 47.6107 41.9648C50.0443 42.4678 52.2797 43.7093 54.0342 45.5324C55.7887 47.3555 56.9835 49.6782 57.4676 52.2069C57.9517 54.7355 57.7032 57.3566 56.7537 59.7386C55.8042 62.1205 54.1962 64.1564 52.1331 65.5888C50.07 67.0212 47.6445 67.7857 45.1632 67.7857ZM52.6905 54.75C52.6905 55.4415 52.4261 56.1046 51.9556 56.5935C51.485 57.0825 50.8468 57.3572 50.1814 57.3572H47.6723V59.9643C47.6723 60.6558 47.408 61.3189 46.9374 61.8078C46.4669 62.2968 45.8287 62.5714 45.1632 62.5714C44.4978 62.5714 43.8596 62.2968 43.389 61.8078C42.9185 61.3189 42.6541 60.6558 42.6541 59.9643V57.3572H40.145C39.4796 57.3572 38.8414 57.0825 38.3709 56.5935C37.9003 56.1046 37.636 55.4415 37.636 54.75C37.636 54.0586 37.9003 53.3954 38.3709 52.9065C38.8414 52.4176 39.4796 52.1429 40.145 52.1429H42.6541V49.5357C42.6541 48.8443 42.9185 48.1811 43.389 47.6922C43.8596 47.2033 44.4978 46.9286 45.1632 46.9286C45.8287 46.9286 46.4669 47.2033 46.9374 47.6922C47.408 48.1811 47.6723 48.8443 47.6723 49.5357V52.1429H50.1814C50.8468 52.1429 51.485 52.4176 51.9556 52.9065C52.4261 53.3954 52.6905 54.0586 52.6905 54.75Z" fill="#004059"/>
<path d="M46.945 13.7918L34.3996 0.756115C34.1651 0.514481 33.8871 0.323312 33.5814 0.193568C33.2757 0.0638251 32.9483 -0.00194018 32.6181 4.35765e-05H2.50909C1.84364 4.35765e-05 1.20544 0.274724 0.734895 0.763658C0.26435 1.25259 0 1.91573 0 2.60719V59.9643C0 60.6558 0.26435 61.3189 0.734895 61.8078C1.20544 62.2968 1.84364 62.5714 2.50909 62.5714H30.9872C31.3917 62.5708 31.7901 62.4685 32.1483 62.2732C32.5066 62.078 32.8141 61.7957 33.0447 61.4504C33.2776 61.1003 33.4246 60.6964 33.4727 60.2737C33.5208 59.8511 33.4686 59.4226 33.3207 59.0257C33.1333 58.481 32.9824 57.9235 32.869 57.3572C32.6918 56.5006 32.6076 55.6261 32.6181 54.75C32.6181 51.2927 33.9399 47.9771 36.2926 45.5324C38.6453 43.0877 41.8363 41.7143 45.1636 41.7143C45.829 41.7143 46.4672 41.4396 46.9378 40.9507C47.4083 40.4618 47.6727 39.7986 47.6727 39.1072V15.6429C47.6746 15.2998 47.6113 14.9596 47.4864 14.642C47.3616 14.3243 47.1776 14.0354 46.945 13.7918ZM42.6545 36.6825C38.4736 37.3096 34.6502 39.4813 31.8853 42.7997C29.1203 46.1181 27.5989 50.3607 27.6 54.75C27.5951 55.6224 27.6538 56.494 27.7756 57.3572H5.01817V5.21433H31.5141L42.6545 16.7379V36.6825ZM30.109 13.0358C30.109 13.7272 29.8447 14.3903 29.3742 14.8793C28.9036 15.3682 28.2654 15.6429 27.6 15.6429H12.5454C11.88 15.6429 11.2418 15.3682 10.7712 14.8793C10.3007 14.3903 10.0363 13.7272 10.0363 13.0358C10.0363 12.3443 10.3007 11.6812 10.7712 11.1922C11.2418 10.7033 11.88 10.4286 12.5454 10.4286H27.6C28.2654 10.4286 28.9036 10.7033 29.3742 11.1922C29.8447 11.6812 30.109 12.3443 30.109 13.0358ZM30.109 23.4643C30.109 24.1558 29.8447 24.8189 29.3742 25.3078C28.9036 25.7968 28.2654 26.0715 27.6 26.0715H12.5454C11.88 26.0715 11.2418 25.7968 10.7712 25.3078C10.3007 24.8189 10.0363 24.1558 10.0363 23.4643C10.0363 22.7729 10.3007 22.1097 10.7712 21.6208C11.2418 21.1319 11.88 20.8572 12.5454 20.8572H27.6C28.2654 20.8572 28.9036 21.1319 29.3742 21.6208C29.8447 22.1097 30.109 22.7729 30.109 23.4643ZM30.109 33.8929C30.109 34.5843 29.8447 35.2475 29.3742 35.7364C28.9036 36.2253 28.2654 36.5 27.6 36.5H12.5454C11.88 36.5 11.2418 36.2253 10.7712 35.7364C10.3007 35.2475 10.0363 34.5843 10.0363 33.8929C10.0363 33.2014 10.3007 32.5383 10.7712 32.0494C11.2418 31.5604 11.88 31.2857 12.5454 31.2857H27.6C28.2654 31.2857 28.9036 31.5604 29.3742 32.0494C29.8447 32.5383 30.109 33.2014 30.109 33.8929ZM32.6181 33.8929C32.6181 33.3772 32.7653 32.8732 33.041 32.4444C33.3167 32.0157 33.7086 31.6815 34.167 31.4842C34.6255 31.2869 35.13 31.2352 35.6167 31.3358C36.1034 31.4364 36.5505 31.6847 36.9014 32.0494C37.2523 32.414 37.4913 32.8785 37.5881 33.3843C37.6849 33.89 37.6352 34.4142 37.4453 34.8906C37.2554 35.367 36.9338 35.7742 36.5212 36.0606C36.1086 36.3471 35.6235 36.5 35.1272 36.5C34.4618 36.5 33.8236 36.2253 33.353 35.7364C32.8825 35.2475 32.6181 34.5843 32.6181 33.8929ZM32.6181 23.4643C32.6181 22.9487 32.7653 22.4446 33.041 22.0159C33.3167 21.5871 33.7086 21.253 34.167 21.0556C34.6255 20.8583 35.13 20.8067 35.6167 20.9073C36.1034 21.0079 36.5505 21.2562 36.9014 21.6208C37.2523 21.9854 37.4913 22.45 37.5881 22.9557C37.6849 23.4614 37.6352 23.9856 37.4453 24.462C37.2554 24.9384 36.9338 25.3456 36.5212 25.6321C36.1086 25.9186 35.6235 26.0715 35.1272 26.0715C34.4618 26.0715 33.8236 25.7968 33.353 25.3078C32.8825 24.8189 32.6181 24.1558 32.6181 23.4643Z" fill="#004059"/>
</svg>
