<svg width="277" height="104" viewBox="0 0 277 104" fill="none" xmlns="http://www.w3.org/2000/svg">
<path d="M274.831 93.6272C274.831 93.5848 274.818 93.5424 274.818 93.5C274.818 92.1676 276.342 90.873 276.342 89.5406V89.1531C276.342 87.8206 274.818 86.526 274.818 85.1936C274.818 83.8612 276.342 82.5666 276.342 81.2341V80.8466C276.342 79.5142 274.818 78.2196 274.818 76.8872C274.818 75.5547 276.342 74.2602 276.342 72.9277V72.5402C276.342 71.2077 274.818 69.9132 274.818 68.5807C274.818 67.2483 276.342 65.9537 276.342 64.6213V64.2337C276.342 62.9013 274.818 61.6067 274.818 60.2743C274.818 58.9419 276.342 57.6473 276.342 56.3148V55.9273C276.342 54.5949 274.818 53.3003 274.818 51.9679C274.818 50.6354 276.342 49.3408 276.342 48.0084V47.6209C276.342 46.2884 274.818 44.9939 274.818 43.6614C274.818 42.329 276.342 41.0344 276.342 39.702V39.3144C276.342 37.982 274.818 36.6874 274.818 35.355C274.818 34.0225 276.342 32.728 276.342 31.3955V31.008C276.342 29.6756 274.818 28.381 274.818 27.0485C274.818 25.7161 276.342 24.4215 276.342 23.0891V22.7016C276.342 21.3691 274.818 20.0745 274.818 18.7421C274.818 17.4097 276.342 16.1151 276.342 14.7826V14.3951C276.342 13.0627 274.818 11.7681 274.818 10.4357C274.818 10.3652 274.774 10.3 274.705 10.2887C271.198 9.7185 268.279 7.34951 266.905 4.14365C265.98 1.98381 264.155 0.00317383 261.805 0.00317383L4.39706 0.00317383C2.04731 0.00317383 0.142456 1.90802 0.142456 4.25777V99.7486C0.142456 102.098 2.0473 104.003 4.39705 104.003H261.805C264.155 104.003 265.979 102.023 266.903 99.8621C268.283 96.6345 271.227 94.2573 274.768 93.7005C274.805 93.6948 274.831 93.6637 274.831 93.6272Z" fill="#15181F"/>
</svg>
