<svg width="119" height="107" viewBox="0 0 119 107" fill="none" xmlns="http://www.w3.org/2000/svg">
<path d="M11.3783 5.44833C11.9703 3.75466 13.2908 2.45519 14.8144 2.44293L114.703 1.6392C116.278 1.62653 117.562 2.90009 117.562 4.47551V101.728C117.562 103.286 116.306 104.552 114.749 104.565L14.8601 105.368C13.3191 105.381 11.9665 104.074 11.3575 102.363C10.0566 98.7075 6.9063 95.9316 3.03567 95.152C2.90914 94.4648 2.53899 93.8358 2.24854 93.3422C2.23426 93.3179 2.22018 93.294 2.20633 93.2704C1.7892 92.5599 1.52746 92.0757 1.52746 91.6332V91.2792C1.52746 90.8366 1.7892 90.3524 2.20633 89.6419C2.22018 89.6183 2.23427 89.5944 2.24855 89.5701C2.60459 88.9651 3.08039 88.1566 3.08039 87.2867C3.08039 86.4167 2.60458 85.6082 2.24854 85.0032C2.23426 84.9789 2.22018 84.955 2.20633 84.9314C1.7892 84.2209 1.52746 83.7367 1.52746 83.2941V82.9402C1.52746 82.4976 1.7892 82.0134 2.20633 81.3029C2.22018 81.2793 2.23426 81.2554 2.24854 81.2311C2.60458 80.6261 3.08039 79.8176 3.08039 78.9476C3.08039 78.0777 2.60457 77.2692 2.24853 76.6642C2.23426 76.6399 2.22018 76.616 2.20633 76.5924C1.7892 75.8819 1.52746 75.3977 1.52746 74.9551V74.6012C1.52746 74.1586 1.7892 73.6744 2.20633 72.9639C2.22018 72.9403 2.23426 72.9164 2.24854 72.8921C2.60458 72.2871 3.08039 71.4785 3.08039 70.6086C3.08039 69.7387 2.60457 68.9302 2.24853 68.3251C2.23426 68.3009 2.22018 68.277 2.20633 68.2534C1.7892 67.5429 1.52746 67.0587 1.52746 66.6161V66.2621C1.52746 65.8196 1.7892 65.3354 2.20633 64.6249C2.22018 64.6013 2.23427 64.5774 2.24854 64.5531C2.60458 63.9481 3.08039 63.1395 3.08039 62.2696C3.08039 61.3997 2.60458 60.5912 2.24854 59.9861C2.23427 59.9619 2.22018 59.938 2.20633 59.9144C1.7892 59.2038 1.52746 58.7196 1.52746 58.2771V57.9231C1.52746 57.4806 1.7892 56.9964 2.20633 56.2859C2.22018 56.2623 2.23427 56.2383 2.24854 56.2141C2.60458 55.6091 3.08039 54.8005 3.08039 53.9306C3.08039 53.0607 2.60458 52.2522 2.24854 51.6471C2.23427 51.6229 2.22018 51.5989 2.20633 51.5753C1.7892 50.8648 1.52746 50.3806 1.52746 49.9381V49.5841C1.52746 49.1416 1.7892 48.6574 2.20633 47.9469C2.22018 47.9233 2.23427 47.8993 2.24854 47.8751C2.60458 47.2701 3.08039 46.4615 3.08039 45.5916C3.08039 44.7217 2.60458 43.9131 2.24854 43.3081C2.23427 43.2839 2.22018 43.2599 2.20633 43.2363C1.7892 42.5258 1.52746 42.0416 1.52746 41.5991V41.2451C1.52746 40.8025 1.7892 40.3184 2.20633 39.6078C2.22018 39.5842 2.23427 39.5603 2.24854 39.536C2.60458 38.931 3.08039 38.1225 3.08039 37.2526C3.08039 36.3827 2.60458 35.5741 2.24854 34.9691C2.23427 34.9448 2.22018 34.9209 2.20633 34.8973C1.7892 34.1868 1.52746 33.7026 1.52746 33.2601V32.9061C1.52746 32.4635 1.7892 31.9793 2.20633 31.2688C2.22018 31.2452 2.23427 31.2213 2.24854 31.197C2.60458 30.592 3.08039 29.7835 3.08039 28.9136C3.08039 28.0436 2.60458 27.2351 2.24854 26.6301C2.23427 26.6058 2.22018 26.5819 2.20633 26.5583C1.7892 25.8478 1.52746 25.3636 1.52746 24.9211V24.5671C1.52746 24.1245 1.7892 23.6403 2.20633 22.9298C2.22018 22.9062 2.23426 22.8823 2.24854 22.858C2.60458 22.253 3.08039 21.4445 3.08039 20.5746C3.08039 19.7046 2.60458 18.8961 2.24854 18.2911C2.23427 18.2668 2.22018 18.2429 2.20633 18.2193C1.7892 17.5088 1.52746 17.0246 1.52746 16.582V16.2281C1.52746 15.7855 1.7892 15.3013 2.20633 14.5908C2.22018 14.5672 2.23427 14.5433 2.24854 14.519C2.53897 14.0255 2.90908 13.3966 3.03564 12.7094C6.93055 11.9264 10.0912 9.13012 11.3783 5.44833Z" fill="white" stroke="#15181F" stroke-width="1.4182"/>
</svg>
